<?xml version="1.0" encoding="utf-8"?>
<!-- Generator: Adobe Illustrator 22.0.0, SVG Export Plug-In . SVG Version: 6.00 Build 0)  -->
<svg version="1.1" id="Layer_1" xmlns="http://www.w3.org/2000/svg" xmlns:xlink="http://www.w3.org/1999/xlink" x="0px" y="0px"
	 viewBox="0 0 201.3 48.2" style="enable-background:new 0 0 201.3 48.2;" xml:space="preserve">
<style type="text/css">
	.st0{fill:#FCB814;}
	.st1{fill:#FFFFFF;}
</style>
<g>
	<g>
		<path class="st0" d="M199.3,10.5c-1.3-4.6-4.9-7-10.8-7h-18.9c-5.6,0-9.1,2.1-10.6,6.3h-22.2c-5.9,0-9.5,2.3-10.8,7
			c-0.3,1.1-0.5,2.5-0.6,4.2v6.1c0,1.5,0.2,2.9,0.6,4.2c1.3,4.6,5,7,10.8,7h17.4V21.1h-10.6l-3.3,6.1h7.7v5h-11.3
			c-4.3,0-4.7-1.6-5-2.5c-0.2-0.7-0.3-1.5-0.3-2.5v-6c0-1,0.1-1.8,0.3-2.5c0.3-1,0.7-2.5,5-2.5h21.5l0,0h6.1V15c0-1.1,0.2-2,0.3-2.6
			v-0.1c0.3-1.1,0.7-2.5,4.9-2.5h18.9c4.2,0,4.6,1.4,4.9,2.5v0.1c0.2,0.8,0.3,1.6,0.3,2.5v9.2l0,0v9.4c0,1.1-0.2,2-0.3,2.6v0.1
			c-0.3,1.1-0.7,2.5-4.9,2.5h-18.9c-4.2,0-4.6-1.4-4.9-2.5v-0.1c-0.2-0.8-0.3-1.6-0.3-2.5v-9.2l0,0v-3.3h-6.1v12.4
			c0,1.5,0.2,2.9,0.6,4.2c1.3,4.6,4.9,7,10.8,7h18.9c5.9,0,9.5-2.3,10.8-7c0.3-1.1,0.5-2.5,0.6-4.2V14.8
			C199.9,13.2,199.7,11.8,199.3,10.5z"/>
		<path class="st1" d="M1.4,32.1l12.1-6.5c0.5-0.2,0.9-0.3,1.4-0.3s1,0.1,1.4,0.3l12.2,6.5v6.1L16,31.5c-0.3-0.2-0.7-0.2-1.1-0.2
			c-0.4,0-0.7,0.1-1.1,0.2L1.3,38.2v-6.1H1.4z"/>
		<path class="st0" d="M28.6,15.9l-12.1,6.5c-0.5,0.2-0.9,0.3-1.4,0.3s-1-0.1-1.4-0.3L1.5,15.9V9.8L14,16.5c0.3,0.2,0.7,0.2,1.1,0.2
			c0.4,0,0.7-0.1,1.1-0.2l12.5-6.7v6.1H28.6z"/>
		<polygon class="st1" points="104.3,15.9 110.4,15.9 110.4,38.2 116.6,38.2 116.6,15.9 122.7,15.9 126,9.8 101,9.8 		"/>
		<path class="st1" d="M57.6,14.9v17.5c0,3.9,1.8,5.8,5.4,5.8h13v-6.1H64.2v-5H70V21h-5.8v-5H76V9.9H63
			C59.4,9.8,57.6,11.5,57.6,14.9z"/>
		<path class="st1" d="M53.6,16.8c-1.3-4.6-5-7-10.8-7H32.2v6.1h10.6c4.1,0,4.6,1.5,4.9,2.5l0,0c0.1,0.2,0.1,0.5,0.1,1.1v0.3
			c0,0.4,0,0.7-0.1,1c-0.3,1.1-0.7,2.5-4.9,2.5h-5.2l0,0h-5.4V38h6.1v-8.6h4.4c5.8,0,9.4-2.3,10.8-7c0-0.1,0-0.1,0-0.2
			c0.2-0.8,0.3-1.7,0.3-2.6c0-0.1,0-0.2,0-0.3C53.9,18.6,53.8,17.7,53.6,16.8L53.6,16.8z"/>
		<path class="st1" d="M184,23.4c0-0.5-0.1-1-0.3-1.4l-3.5-6.6h-6.1l3.7,6.9c0.2,0.3,0.2,0.7,0.2,1.1c0,0.4-0.1,0.7-0.2,1.1l-3.7,7
			h6.1l3.6-6.7C183.9,24.3,184,23.9,184,23.4z"/>
		<path class="st1" d="M97.5,28.1l-0.2-0.3l0,0c-0.3-0.7-0.3-1.4,0-2.1l0.3-0.5l2.5-5c0-0.1,0.1-0.1,0.1-0.2c0.4-1,0.5-2.1,0.4-3.1
			l0,0c-0.1-1.3-0.7-2.6-1.5-3.6C99,13.2,99,13.2,99,13.1c-1.9-2.1-4.8-3.2-8.8-3.2H79.6v28.4h6.1V16.1h5.7c2.2,0,3.6,2.3,2.6,4.3
			l-0.7,1.3l-1,1.9v0.1l-0.9,1.7v0.1l0,0c-0.1,0.1-0.1,0.2-0.1,0.4c-0.3,0.8-0.2,1.7,0.1,2.5l0.8,1.4l0,0l4.5,8.6h6.2L97.5,28.1z"/>
	</g>
</g>
</svg>
