<svg version="1.2" xmlns="http://www.w3.org/2000/svg" viewBox="0 0 32 32" width="32" height="32">
	<title>logo-xpertgo-br-svg</title>
	<style>
		.s0 { fill: #fcb814 } 
		.s1 { fill: #ffffff } 
	</style>
	<g id="Layer">
		<g id="Layer">
			<path id="Layer" class="s0" d="m199.9 6.8v18.7q-0.1 2.6-0.6 4.2c-1.3 4.7-4.9 7-10.8 7h-18.9c-5.9 0-9.5-2.4-10.8-7q-0.6-2-0.6-4.2v-12.4h6.1v3.3 9.2c0 0.9 0.1 1.7 0.3 2.5v0.1c0.3 1.1 0.7 2.5 4.9 2.5h18.9c4.2 0 4.6-1.4 4.9-2.5v-0.1c0.1-0.6 0.3-1.5 0.3-2.6v-9.4-9.2c0-0.9-0.1-1.7-0.3-2.5v-0.1c-0.3-1.1-0.7-2.5-4.9-2.5h-18.9c-4.2 0-4.6 1.4-4.9 2.5v0.1c-0.1 0.6-0.3 1.5-0.3 2.6v1.2h-6.1-21.5c-4.3 0-4.7 1.5-5 2.5-0.2 0.7-0.3 1.5-0.3 2.5v6c0 1 0.1 1.8 0.3 2.5 0.3 0.9 0.7 2.5 5 2.5h11.3v-5h-7.7l3.3-6.1h10.6v17.2h-17.4c-5.8 0-9.5-2.4-10.8-7q-0.6-1.9-0.6-4.2v-6.1q0.2-2.5 0.6-4.2c1.3-4.7 4.9-7 10.8-7h22.2c1.5-4.2 5-6.3 10.6-6.3h18.9c5.9 0 9.5 2.4 10.8 7 0.4 1.3 0.6 2.7 0.6 4.3z"/>
			<path id="Layer" class="s1" d="m1.4 24.1l12.1-6.5c0.5-0.2 0.9-0.3 1.4-0.3 0.5 0 1 0.1 1.4 0.3l12.2 6.5v6.1l-12.5-6.7c-0.3-0.2-0.7-0.2-1.1-0.2-0.4 0-0.7 0.1-1.1 0.2l-12.5 6.7v-6.1z"/>
			<path id="Layer" class="s0" d="m28.6 7.9l-12.1 6.5c-0.5 0.2-0.9 0.3-1.4 0.3-0.5 0-1-0.1-1.4-0.3l-12.2-6.5v-6.1l12.5 6.7c0.3 0.2 0.7 0.2 1.1 0.2 0.4 0 0.7-0.1 1.1-0.2l12.5-6.7v6.1z"/>
			<path id="Layer" class="s1" d="m101 1.8h25l-3.3 6.1h-6.1v22.3h-6.2v-22.3h-6.1z"/>
			<path id="Layer" class="s1" d="m63 1.9h13v6.1h-11.8v5h5.8v6.1h-5.8v5h11.8v6.1h-13c-3.6 0-5.4-1.9-5.4-5.8v-17.5c0-3.4 1.8-5.1 5.4-5z"/>
			<path id="Layer" class="s1" d="m53.8 11.3q0 0.1 0 0.3c0 0.9-0.1 1.8-0.3 2.6 0 0.1 0 0.1 0 0.2-1.4 4.7-5 7-10.8 7h-4.4v8.6h-6.1v-14.7h5.4 5.2c4.2 0 4.6-1.4 4.9-2.5 0.1-0.3 0.1-0.6 0.1-1v-0.3c0-0.6 0-0.9-0.1-1.1-0.3-1-0.8-2.5-4.9-2.5h-10.6v-6.1h10.6c5.8 0 9.5 2.4 10.8 7 0.2 0.9 0.3 1.8 0.2 2.5z"/>
			<path id="Layer" class="s1" d="m183.8 16.8l-3.6 6.7h-6.1l3.7-7c0.1-0.4 0.2-0.7 0.2-1.1 0-0.4 0-0.8-0.2-1.1l-3.7-6.9h6.1l3.5 6.6c0.2 0.4 0.3 0.9 0.3 1.4 0 0.5-0.1 0.9-0.2 1.4z"/>
			<path id="Layer" class="s1" d="m102.9 30.4h-6.2l-4.5-8.6-0.8-1.4c-0.3-0.8-0.4-1.7-0.1-2.5 0-0.2 0-0.3 0.1-0.4v-0.1l0.9-1.7v-0.1l1-1.9 0.7-1.3c1-2-0.4-4.3-2.6-4.3h-5.7v22.2h-6.1v-28.4h10.6c4 0 6.9 1.1 8.8 3.2 0 0.1 0 0.1 0.1 0.2 0.8 1 1.4 2.3 1.5 3.6 0.1 1 0 2.1-0.4 3.1 0 0.1-0.1 0.1-0.1 0.2l-2.5 5-0.3 0.5q-0.5 1 0 2.1l0.2 0.3z"/>
		</g>
	</g>
</svg>